<svg width="140" height="141" viewBox="0 0 140 141" fill="none" xmlns="http://www.w3.org/2000/svg">
<circle cx="69" cy="69" r="58" fill="white"/>
<path fill-rule="evenodd" clip-rule="evenodd" d="M69.74 1.15525e-06C55.9487 -0.00252256 42.4664 4.12991 30.9981 11.8747C19.5299 19.6195 10.5908 30.6287 5.31133 43.5101C0.0318994 56.3916 -1.35074 70.5666 1.33828 84.2425C4.02731 97.9184 10.6672 110.481 20.4182 120.341C30.1693 130.202 42.5935 136.917 56.1196 139.639C69.6458 142.36 83.6663 140.964 96.408 135.629C109.15 130.294 120.04 121.258 127.703 109.664C135.365 98.071 139.455 84.4406 139.455 70.497C139.455 51.8023 132.11 33.873 119.037 20.6526C105.963 7.43222 88.2307 0.00338482 69.74 1.15525e-06ZM82.537 51.5745C82.5293 51.4174 82.5558 51.2606 82.6147 51.115C82.6735 50.9695 82.7634 50.8389 82.8778 50.7323C83.0952 50.5269 83.3816 50.4127 83.6792 50.4127C83.9767 50.4127 84.2632 50.5269 84.4806 50.7323C84.595 50.8389 84.6848 50.9695 84.7437 51.115C84.8026 51.2606 84.8291 51.4174 84.8213 51.5745V89.3175C84.8255 89.4779 84.7975 89.6375 84.7389 89.7866C84.6803 89.9358 84.5925 90.0714 84.4806 90.1852C84.3769 90.2944 84.2525 90.3813 84.1148 90.4407C83.9771 90.5 83.8289 90.5306 83.6792 90.5306C83.5295 90.5306 83.3813 90.5 83.2436 90.4407C83.1059 90.3813 82.9815 90.2944 82.8778 90.1852C82.7659 90.0714 82.6781 89.9358 82.6195 89.7866C82.5609 89.6375 82.5329 89.4779 82.537 89.3175V51.5745ZM53.2326 50.7323C53.4517 50.5257 53.7407 50.4115 54.0403 50.4134H66.5218C67.825 50.4401 69.1107 50.7218 70.3079 51.2427C71.5402 51.7867 72.6647 52.5519 73.6271 53.5012C74.5827 54.4559 75.3494 55.5862 75.8861 56.8315C76.436 58.1344 76.7195 59.5363 76.7195 60.9528C76.7195 62.3694 76.436 63.7713 75.8861 65.0742C74.8006 67.6007 72.8069 69.6164 70.3079 70.714C69.0888 71.2499 67.7754 71.532 66.4461 71.5433H66.0296L75.4823 88.8326C75.566 88.9588 75.6189 89.1033 75.6364 89.2542C75.654 89.405 75.6357 89.558 75.5832 89.7003C75.4853 89.9966 75.2832 90.2463 75.0153 90.4021C74.8845 90.4853 74.7375 90.5394 74.5843 90.5605C74.4311 90.5817 74.2752 90.5695 74.127 90.5248C73.9788 90.4801 73.8418 90.4039 73.7251 90.3013C73.6084 90.1988 73.5148 90.0721 73.4504 89.93L63.2406 71.135C63.1038 70.9769 63.0161 70.7817 62.9881 70.5736C62.9819 70.5228 62.9819 70.4713 62.9881 70.4205C62.9819 70.3611 62.9819 70.3012 62.9881 70.2418C63.014 69.9829 63.1251 69.7403 63.3037 69.5528C63.4807 69.3749 63.7119 69.2626 63.9599 69.2338H66.2947C67.3935 69.2444 68.482 69.0183 69.4876 68.5703C71.4172 67.7261 72.9561 66.1702 73.7912 64.2193C74.2245 63.1994 74.4479 62.1011 74.4479 60.9911C74.4479 59.8811 74.2245 58.7828 73.7912 57.7629C72.9561 55.812 71.4172 54.2561 69.4876 53.4119C68.482 52.9639 67.3935 52.7378 66.2947 52.7484H54.0403C53.8907 52.7501 53.7422 52.7215 53.6037 52.6644C53.4651 52.6073 53.3392 52.5228 53.2334 52.4158C53.1276 52.3089 53.044 52.1816 52.9875 52.0415C52.931 51.9014 52.9028 51.7513 52.9045 51.6C52.894 51.44 52.9178 51.2796 52.9745 51.1298C53.0311 50.98 53.1192 50.8444 53.2326 50.7323ZM45.2692 72.4237C46.2108 73.3946 46.9679 74.5321 47.503 75.7795C48.0628 77.0793 48.3465 78.4833 48.3359 79.9009C48.3438 81.3264 48.0602 82.7383 47.503 84.0478C46.9684 85.3031 46.2113 86.449 45.2692 87.4291C44.318 88.3987 43.1911 89.1741 41.95 89.7131C40.7199 90.242 39.3996 90.5237 38.063 90.5424H25.5436C25.3947 90.544 25.2471 90.5141 25.1102 90.4548C24.9733 90.3955 24.8501 90.308 24.7485 90.1979C24.6366 90.0841 24.5488 89.9485 24.4902 89.7994C24.4316 89.6503 24.4036 89.4907 24.4078 89.3303C24.406 89.1778 24.4354 89.0266 24.494 88.8861C24.5527 88.7456 24.6393 88.6188 24.7485 88.5137C24.8508 88.4053 24.9743 88.3197 25.1113 88.2626C25.2482 88.2055 25.3955 88.178 25.5436 88.1819H37.8737C38.9719 88.1864 40.0592 87.9605 41.0666 87.5184C42.0368 87.0938 42.9188 86.4877 43.6664 85.7321C44.4031 84.9992 44.9981 84.1337 45.4206 83.1801C45.8626 82.163 46.0862 81.0628 46.0769 79.9519C46.1024 78.8298 45.8871 77.7154 45.4459 76.6855C45.0275 75.7294 44.4321 74.8632 43.6916 74.1335C42.9329 73.3982 42.0531 72.8023 41.0919 72.3727C40.0795 71.9136 38.9832 71.6745 37.8737 71.6709H25.5436C25.3947 71.6724 25.2471 71.6426 25.1102 71.5833C24.9733 71.524 24.8501 71.4365 24.7485 71.3264C24.6354 71.2135 24.5468 71.0781 24.4881 70.9287C24.4294 70.7794 24.4021 70.6194 24.4078 70.4588C24.4142 70.1562 24.5359 69.8679 24.7476 69.6539C24.9592 69.44 25.2444 69.3169 25.5436 69.3104H37.5203C37.6288 69.2911 37.7399 69.2911 37.8484 69.3104C38.9473 69.321 40.0357 69.0948 41.0414 68.6469C42.0047 68.2266 42.8853 67.6345 43.6412 66.8988C44.3816 66.1691 44.9771 65.3029 45.3954 64.3469C45.8287 63.327 46.0522 62.2287 46.0522 61.1187C46.0522 60.0087 45.8287 58.9104 45.3954 57.8905C44.9757 56.9353 44.3804 56.0693 43.6412 55.3386C42.8936 54.5829 42.0115 53.9768 41.0414 53.5522C40.056 53.0506 38.976 52.7678 37.8737 52.7229H25.5436C25.2424 52.7229 24.9535 52.6019 24.7404 52.3865C24.5274 52.1711 24.4078 51.879 24.4078 51.5745C24.4 51.4174 24.4265 51.2606 24.4854 51.115C24.5443 50.9695 24.6341 50.8389 24.7485 50.7323C24.963 50.5265 25.2478 50.4122 25.5436 50.4134H38.0756C39.408 50.4335 40.7239 50.7151 41.95 51.2427C44.4541 52.3107 46.4466 54.3253 47.503 56.857C48.0602 58.1665 48.3438 59.5783 48.3359 61.0039C48.3465 62.4214 48.0628 63.8255 47.503 65.1252C46.9679 66.3727 46.2108 67.5102 45.2692 68.481C44.4921 69.2881 43.5826 69.9529 42.5811 70.446C43.5814 70.9519 44.4902 71.6249 45.2692 72.4365V72.4237ZM52.8414 89.343V59.2303C52.8336 59.0732 52.8601 58.9164 52.919 58.7708C52.9779 58.6253 53.0677 58.4946 53.1821 58.3881C53.2892 58.2835 53.4157 58.2014 53.5543 58.1467C53.693 58.0919 53.841 58.0655 53.9898 58.0691C54.29 58.0647 54.5799 58.1792 54.7975 58.3881C54.9077 58.4973 54.9938 58.6288 55.0504 58.7739C55.1069 58.919 55.1326 59.0745 55.1257 59.2303V89.3175C55.128 89.6381 55.0109 89.9479 54.7975 90.1852C54.6926 90.2944 54.5671 90.3812 54.4283 90.4404C54.2896 90.4996 54.1404 90.5299 53.9898 90.5297C53.839 90.5314 53.6895 90.5017 53.5505 90.4425C53.4115 90.3832 53.2862 90.2956 53.1821 90.1852C53.0758 90.069 52.9942 89.9322 52.9421 89.783C52.89 89.6338 52.8686 89.4754 52.8793 89.3175L52.8414 89.343ZM85.6164 120.757C85.507 120.867 85.3768 120.953 85.2336 121.01C85.0904 121.067 84.9373 121.094 84.7835 121.089H54.5956C54.2785 121.091 53.9721 120.973 53.7374 120.757C53.5273 120.538 53.4096 120.246 53.4093 119.941C53.4081 119.789 53.4365 119.639 53.4928 119.499C53.5491 119.359 53.6322 119.232 53.7374 119.124C53.85 119.011 53.9841 118.922 54.1316 118.863C54.2791 118.804 54.437 118.775 54.5956 118.78H84.7835C84.9385 118.774 85.0929 118.802 85.2365 118.862C85.38 118.921 85.5095 119.01 85.6164 119.124C85.8162 119.348 85.9245 119.639 85.9193 119.941C85.9233 120.242 85.8152 120.533 85.6164 120.757ZM94.1604 89.3175C94.1627 89.6381 94.0456 89.9479 93.8323 90.1852C93.7275 90.2948 93.602 90.3819 93.4632 90.4414C93.3245 90.501 93.1753 90.5316 93.0246 90.5316C92.8738 90.5316 92.7246 90.501 92.5859 90.4414C92.4471 90.3819 92.3216 90.2948 92.2169 90.1852C92.105 90.0714 92.0171 89.9358 91.9585 89.7866C91.9 89.6375 91.8719 89.4779 91.8761 89.3175V51.5745C91.8683 51.4174 91.8948 51.2606 91.9537 51.115C92.0126 50.9695 92.1024 50.8389 92.2169 50.7323C92.4363 50.5261 92.7249 50.4114 93.0246 50.4114C93.3242 50.4114 93.6128 50.5261 93.8323 50.7323C93.9424 50.8415 94.0285 50.973 94.0851 51.1181C94.1416 51.2632 94.1673 51.4187 94.1604 51.5745V89.3175ZM97.7067 66.3502L113.104 50.7834C113.209 50.6709 113.336 50.5812 113.477 50.5198C113.618 50.4584 113.77 50.4265 113.924 50.4261C114.222 50.4462 114.504 50.5728 114.719 50.7834C114.923 51.0024 115.043 51.2871 115.06 51.5872C115.065 51.7421 115.037 51.8962 114.978 52.0393C114.919 52.1823 114.831 52.311 114.719 52.4166L99.3221 67.9834C99.0965 68.2101 98.7944 68.3422 98.4765 68.3534C98.3267 68.3561 98.178 68.328 98.0391 68.271C97.9003 68.214 97.7744 68.1292 97.6688 68.0217C97.5613 67.9159 97.4766 67.7887 97.4201 67.6481C97.3636 67.5076 97.3366 67.3567 97.3407 67.205C97.3393 67.0446 97.3711 66.8856 97.4341 66.7384C97.4972 66.5912 97.59 66.4589 97.7067 66.3502ZM114.732 90.2234C114.628 90.3351 114.503 90.4236 114.364 90.4829C114.225 90.5423 114.075 90.5713 113.924 90.568C113.606 90.5568 113.304 90.4246 113.078 90.1979L97.6815 74.6312C97.5697 74.5226 97.4816 74.3916 97.4229 74.2466C97.3642 74.1015 97.3362 73.9457 97.3407 73.789C97.3496 73.4909 97.4716 73.2076 97.6815 72.9979C97.8907 72.7791 98.1757 72.6511 98.4765 72.6407C98.631 72.6345 98.7848 72.6634 98.9268 72.7252C99.0687 72.787 99.1952 72.8802 99.2969 72.9979L114.694 88.5647C114.811 88.6705 114.904 88.8004 114.967 88.9456C115.03 89.0909 115.062 89.2482 115.06 89.4068C115.066 89.5588 115.04 89.7104 114.984 89.8513C114.927 89.9922 114.841 90.1191 114.732 90.2234Z" fill="#EC5F59"/>
<line x1="24.3236" y1="104.449" x2="115.131" y2="104.449" stroke="white" stroke-width="0.952663"/>
</svg>
