<svg width="77" height="77" viewBox="0 0 77 77" fill="none" xmlns="http://www.w3.org/2000/svg">
<rect y="0.34314" width="76.213" height="76.213" rx="22.8639" fill="#EC5F59"/>
<g clip-path="url(#clip0_244_37)">
<path d="M39.1063 22.2071C37.3377 22.2071 35.6415 22.9097 34.3909 24.1603C33.1403 25.4109 32.4377 27.1071 32.4377 28.8757C32.4377 30.6444 33.1403 32.3406 34.3909 33.5912C35.6415 34.8418 37.3377 35.5444 39.1063 35.5444C40.875 35.5444 42.5712 34.8418 43.8218 33.5912C45.0724 32.3406 45.775 30.6444 45.775 28.8757C45.775 27.1071 45.0724 25.4109 43.8218 24.1603C42.5712 22.9097 40.875 22.2071 39.1063 22.2071ZM24.8164 27.9231C23.5531 27.9231 22.3415 28.4249 21.4482 29.3182C20.5549 30.2115 20.0531 31.4231 20.0531 32.6864C20.0531 33.3119 20.1763 33.9313 20.4157 34.5092C20.655 35.0871 21.0059 35.6122 21.4482 36.0546C22.3415 36.9478 23.5531 37.4497 24.8164 37.4497C25.4419 37.4497 26.0613 37.3265 26.6392 37.0871C27.2171 36.8477 27.7423 36.4969 28.1846 36.0546C28.6269 35.6122 28.9777 35.0871 29.2171 34.5092C29.4565 33.9313 29.5797 33.3119 29.5797 32.6864C29.5797 32.0609 29.4565 31.4415 29.2171 30.8635C28.9777 30.2856 28.6269 29.7605 28.1846 29.3182C27.7423 28.8759 27.2171 28.525 26.6392 28.2857C26.0613 28.0463 25.4419 27.9231 24.8164 27.9231ZM53.3963 27.9231C52.133 27.9231 50.9214 28.4249 50.0281 29.3182C49.1348 30.2115 48.633 31.4231 48.633 32.6864C48.633 33.3119 48.7562 33.9313 48.9956 34.5092C49.2349 35.0871 49.5858 35.6122 50.0281 36.0546C50.9214 36.9478 52.133 37.4497 53.3963 37.4497C54.0218 37.4497 54.6412 37.3265 55.2191 37.0871C55.797 36.8477 56.3221 36.4969 56.7645 36.0546C57.2068 35.6122 57.5576 35.0871 57.797 34.5092C58.0364 33.9313 58.1596 33.3119 58.1596 32.6864C58.1596 31.4231 57.6577 30.2115 56.7645 29.3182C55.8712 28.4249 54.6596 27.9231 53.3963 27.9231ZM39.1063 39.355C34.6555 39.355 25.7691 41.59 25.7691 46.0237V50.787C25.7691 51.8387 26.6226 52.6923 27.6744 52.6923H50.5383C51.59 52.6923 52.4436 51.8387 52.4436 50.787V46.0237C52.4436 41.59 43.5572 39.355 39.1063 39.355ZM23.6702 41.3608C20.6579 41.8257 16.2424 43.907 16.2424 46.4144V50.787C16.2424 51.8387 17.096 52.6923 18.1478 52.6923H21.9584V46.0237C21.9584 44.1926 22.6166 42.6564 23.6702 41.3608ZM54.5424 41.3608C55.5961 42.6564 56.2543 44.1926 56.2543 46.0237V52.6923H60.0649C61.1167 52.6923 61.9702 51.8387 61.9702 50.787V46.4144C61.9702 43.907 57.5548 41.8257 54.5424 41.3608Z" fill="white"/>
</g>
<defs>
<clipPath id="clip0_244_37">
<rect width="45.7278" height="45.7278" fill="white" transform="translate(16.2424 14.5859)"/>
</clipPath>
</defs>
</svg>
