<svg width="13" height="24" viewBox="0 0 13 24" fill="none" xmlns="http://www.w3.org/2000/svg">
<path d="M9.77922 5.04149H12.1609C12.4238 5.04149 12.6372 4.81881 12.6372 4.54445V1.19588C12.6372 0.935429 12.4452 0.718719 12.1966 0.700328C11.4387 0.644163 9.95832 0.568115 8.89373 0.568115C5.9686 0.568115 4.0633 2.39723 4.0633 5.72144V9.01782H0.729012C0.46608 9.01782 0.252686 9.24049 0.252686 9.51486V12.9942C0.252686 13.2685 0.46608 13.4912 0.729012 13.4912H4.0633V22.935C4.0633 23.2093 4.27669 23.432 4.53962 23.432H7.87391C8.13684 23.432 8.35024 23.2093 8.35024 22.935V13.4912H11.7903C12.0332 13.4912 12.2371 13.3008 12.2637 13.0488L12.6343 9.56954C12.6658 9.27529 12.4447 9.01782 12.1609 9.01782H8.35024V6.53261C8.35024 5.70901 8.98994 5.04149 9.77922 5.04149Z" fill="white"/>
</svg>
