<svg width="32" height="31" viewBox="0 0 32 31" fill="none" xmlns="http://www.w3.org/2000/svg">
<path d="M16.0886 26.71C21.3394 26.71 25.6152 22.4341 25.6152 17.1833L25.6152 13.3727C25.6152 8.12187 21.3394 3.84606 16.0886 3.84606C10.8378 3.84606 6.56198 8.12188 6.56198 13.3727L6.56198 17.1833C6.56198 22.4341 10.8378 26.71 16.0886 26.71ZM16.0886 24.8046C11.8686 24.8046 8.4673 21.4033 8.4673 17.1833L8.4673 13.3727C8.4673 9.15269 11.8686 5.75138 16.0886 5.75138C20.3086 5.75138 23.7099 9.15269 23.7099 13.3727L23.7099 17.1833C23.7099 21.4033 20.3086 24.8046 16.0886 24.8046ZM16.0886 23.3756L18.4703 20.994L17.0413 20.994L17.0413 18.136L18.4703 18.136L16.0886 15.7543L13.7069 18.136L15.1359 18.136L15.1359 20.994L13.7069 20.994L16.0886 23.3756Z" fill="white"/>
</svg>
