<svg width="23" height="24" viewBox="0 0 23 24" fill="none" xmlns="http://www.w3.org/2000/svg">
<path d="M17.1228 15.3685C16.7192 15.1319 16.2232 15.1369 15.8216 15.3755L13.7877 16.5873C13.3324 16.8586 12.7638 16.8268 12.3463 16.5008C11.6246 15.9371 10.4625 14.9888 9.45155 13.9778C8.44057 12.9668 7.49223 11.8048 6.92859 11.0831C6.60253 10.6655 6.57072 10.0969 6.8421 9.64165L8.05388 7.60777C8.29345 7.20616 8.29544 6.70614 8.05885 6.30255L5.07464 1.20493C4.78536 0.711869 4.21079 0.469314 3.6551 0.605503C3.11532 0.736721 2.41449 1.05681 1.67987 1.79243C-0.620417 4.09272 -1.84213 7.97259 6.8083 16.623C15.4587 25.2735 19.3376 24.0528 21.6389 21.7515C22.3755 21.0149 22.6946 20.313 22.8268 19.7723C22.961 19.2176 22.7224 18.647 22.2304 18.3587C21.0017 17.64 18.3515 16.0882 17.1228 15.3685Z" fill="white"/>
</svg>
