<svg width="91" height="90" viewBox="0 0 91 90" fill="none" xmlns="http://www.w3.org/2000/svg">
<path fill-rule="evenodd" clip-rule="evenodd" d="M45.0969 7.37427e-07C36.1964 -0.00161021 27.4953 2.63622 20.094 7.57991C12.6927 12.5236 6.92372 19.5511 3.51652 27.7736C0.109332 35.9961 -0.78298 45.0444 0.952435 53.7741C2.68785 62.5037 6.97304 70.5227 13.2661 76.8169C19.5591 83.1111 27.5773 87.3977 36.3067 89.1347C45.0361 90.8717 54.0845 89.981 62.3076 86.5753C70.5308 83.1696 77.5593 77.4019 82.5043 70.0015C87.4493 62.6011 90.0887 53.9005 90.0887 45C90.0887 33.0667 85.3488 21.622 76.9114 13.1831C68.4741 4.74417 57.0302 0.00216062 45.0969 7.37427e-07ZM53.3557 32.9213C53.3507 32.821 53.3678 32.7209 53.4058 32.628C53.4438 32.5351 53.5018 32.4517 53.5756 32.3837C53.7159 32.2526 53.9008 32.1796 54.0928 32.1796C54.2849 32.1796 54.4697 32.2526 54.61 32.3837C54.6839 32.4517 54.7418 32.5351 54.7798 32.628C54.8179 32.7209 54.8349 32.821 54.8299 32.9213V57.0136C54.8326 57.116 54.8145 57.2178 54.7767 57.313C54.7389 57.4082 54.6822 57.4948 54.61 57.5674C54.5431 57.6371 54.4628 57.6926 54.3739 57.7305C54.2851 57.7684 54.1894 57.7879 54.0928 57.7879C53.9962 57.7879 53.9006 57.7684 53.8117 57.7305C53.7228 57.6926 53.6425 57.6371 53.5756 57.5674C53.5034 57.4948 53.4467 57.4082 53.4089 57.313C53.3711 57.2178 53.353 57.116 53.3557 57.0136V32.9213ZM34.4435 32.3837C34.5849 32.2518 34.7714 32.1789 34.9648 32.1801H43.02C43.861 32.1972 44.6907 32.377 45.4634 32.7095C46.2586 33.0567 46.9844 33.5452 47.6055 34.1511C48.2222 34.7606 48.717 35.4821 49.0634 36.2769C49.4183 37.1086 49.6012 38.0035 49.6012 38.9077C49.6012 39.8119 49.4183 40.7068 49.0634 41.5385C48.3628 43.1512 47.0762 44.4379 45.4634 45.1385C44.6766 45.4806 43.829 45.6606 42.9711 45.6679H42.7023L48.8028 56.7041C48.8568 56.7846 48.8909 56.8768 48.9022 56.9731C48.9136 57.0694 48.9018 57.167 48.8679 57.2579C48.8047 57.4471 48.6743 57.6065 48.5014 57.7059C48.417 57.759 48.3221 57.7935 48.2232 57.807C48.1244 57.8205 48.0237 57.8128 47.9281 57.7842C47.8325 57.7557 47.744 57.7071 47.6687 57.6416C47.5934 57.5761 47.533 57.4953 47.4915 57.4045L40.9023 45.4072C40.8141 45.3063 40.7575 45.1817 40.7394 45.0489C40.7354 45.0164 40.7354 44.9836 40.7394 44.9511C40.7354 44.9132 40.7354 44.875 40.7394 44.8371C40.7561 44.6718 40.8278 44.5169 40.9431 44.3973C41.0573 44.2837 41.2065 44.212 41.3666 44.1937H42.8734C43.5825 44.2004 44.285 44.0561 44.934 43.7701C46.1793 43.2312 47.1725 42.2381 47.7114 40.9928C47.991 40.3418 48.1352 39.6406 48.1352 38.9321C48.1352 38.2236 47.991 37.5225 47.7114 36.8715C47.1725 35.6262 46.1793 34.633 44.934 34.0941C44.285 33.8082 43.5825 33.6638 42.8734 33.6706H34.9648C34.8682 33.6717 34.7724 33.6535 34.683 33.617C34.5935 33.5806 34.5123 33.5266 34.444 33.4583C34.3757 33.39 34.3218 33.3088 34.2853 33.2194C34.2489 33.1299 34.2307 33.0341 34.2317 32.9375C34.2249 32.8354 34.2404 32.733 34.2769 32.6374C34.3135 32.5418 34.3703 32.4552 34.4435 32.3837ZM29.3041 46.2299C29.9118 46.8496 30.4005 47.5756 30.7458 48.3719C31.107 49.2016 31.2902 50.0978 31.2833 51.0027C31.2884 51.9127 31.1054 52.8139 30.7458 53.6498C30.4007 54.451 29.9122 55.1825 29.3041 55.8081C28.6903 56.427 27.963 56.922 27.1621 57.266C26.3681 57.6037 25.5161 57.7835 24.6535 57.7955H16.5738C16.4777 57.7964 16.3825 57.7774 16.2941 57.7395C16.2058 57.7017 16.1263 57.6458 16.0607 57.5756C15.9885 57.5029 15.9318 57.4164 15.894 57.3212C15.8562 57.226 15.8381 57.1241 15.8408 57.0217C15.8397 56.9244 15.8586 56.8279 15.8965 56.7382C15.9343 56.6485 15.9902 56.5676 16.0607 56.5004C16.1267 56.4313 16.2064 56.3767 16.2948 56.3402C16.3832 56.3037 16.4783 56.2862 16.5738 56.2887H24.5313C25.2401 56.2916 25.9417 56.1473 26.5919 55.8651C27.218 55.5941 27.7873 55.2072 28.2698 54.7249C28.7452 54.2571 29.1292 53.7046 29.4019 53.0959C29.6871 52.4467 29.8314 51.7444 29.8254 51.0353C29.8418 50.319 29.7029 49.6077 29.4182 48.9502C29.1482 48.34 28.7639 47.787 28.286 47.3213C27.7964 46.8519 27.2286 46.4715 26.6082 46.1973C25.9549 45.9042 25.2473 45.7516 24.5313 45.7493H16.5738C16.4777 45.7503 16.3825 45.7312 16.2941 45.6934C16.2058 45.6555 16.1263 45.5997 16.0607 45.5294C15.9877 45.4573 15.9305 45.3709 15.8926 45.2756C15.8548 45.1802 15.8371 45.0781 15.8408 44.9756C15.845 44.7824 15.9235 44.5984 16.0601 44.4618C16.1967 44.3252 16.3807 44.2467 16.5738 44.2425H24.3032C24.3733 44.2302 24.445 44.2302 24.515 44.2425C25.2242 44.2493 25.9266 44.1049 26.5756 43.819C27.1973 43.5507 27.7656 43.1727 28.2535 42.7032C28.7313 42.2374 29.1156 41.6845 29.3856 41.0742C29.6652 40.4232 29.8095 39.7221 29.8095 39.0136C29.8095 38.305 29.6652 37.6039 29.3856 36.9529C29.1147 36.3432 28.7306 35.7904 28.2535 35.324C27.771 34.8416 27.2017 34.4547 26.5756 34.1837C25.9397 33.8635 25.2427 33.683 24.5313 33.6543H16.5738C16.3794 33.6543 16.193 33.5771 16.0555 33.4396C15.918 33.3021 15.8408 33.1157 15.8408 32.9213C15.8358 32.821 15.8529 32.7209 15.8909 32.628C15.9289 32.5351 15.9869 32.4517 16.0607 32.3837C16.1991 32.2523 16.3829 32.1793 16.5738 32.1801H24.6616C25.5215 32.1929 26.3707 32.3727 27.1621 32.7095C28.7781 33.3912 30.064 34.6772 30.7458 36.2932C31.1054 37.1291 31.2884 38.0303 31.2833 38.9403C31.2902 39.8451 31.107 40.7414 30.7458 41.571C30.4005 42.3673 29.9118 43.0934 29.3041 43.7131C28.8027 44.2283 28.2157 44.6527 27.5693 44.9674C28.2149 45.2904 28.8014 45.7199 29.3041 46.238V46.2299ZM34.191 57.0299V37.8081C34.186 37.7079 34.2031 37.6078 34.2411 37.5149C34.2791 37.422 34.3371 37.3386 34.4109 37.2706C34.48 37.2038 34.5616 37.1514 34.6511 37.1164C34.7406 37.0815 34.8362 37.0647 34.9322 37.067C35.1259 37.0641 35.313 37.1372 35.4535 37.2706C35.5245 37.3403 35.5801 37.4242 35.6166 37.5168C35.6531 37.6094 35.6697 37.7087 35.6652 37.8081V57.0136C35.6667 57.2182 35.5911 57.416 35.4535 57.5674C35.3858 57.6371 35.3047 57.6925 35.2152 57.7303C35.1256 57.7681 35.0294 57.7875 34.9322 57.7873C34.8349 57.7884 34.7383 57.7695 34.6487 57.7316C34.559 57.6938 34.4781 57.6379 34.4109 57.5674C34.3423 57.4933 34.2896 57.4059 34.256 57.3107C34.2224 57.2154 34.2086 57.1143 34.2155 57.0136L34.191 57.0299ZM55.3431 77.0823C55.2725 77.1522 55.1884 77.207 55.096 77.2434C55.0036 77.2798 54.9048 77.2971 54.8055 77.2941H35.3231C35.1185 77.2956 34.9207 77.22 34.7693 77.0823C34.6337 76.9427 34.5577 76.7557 34.5575 76.5611C34.5568 76.4645 34.5751 76.3688 34.6114 76.2793C34.6478 76.1899 34.7014 76.1085 34.7693 76.0398C34.842 75.9676 34.9285 75.9109 35.0237 75.8731C35.1189 75.8353 35.2208 75.8172 35.3231 75.8199H54.8055C54.9055 75.8165 55.0052 75.8343 55.0978 75.8722C55.1905 75.9101 55.2741 75.9673 55.3431 76.0398C55.472 76.1824 55.5419 76.3688 55.5385 76.5611C55.5411 76.7532 55.4713 76.9393 55.3431 77.0823ZM60.8571 57.0136C60.8586 57.2182 60.783 57.416 60.6453 57.5674C60.5777 57.6374 60.4967 57.693 60.4072 57.731C60.3176 57.769 60.2213 57.7886 60.124 57.7886C60.0268 57.7886 59.9305 57.769 59.8409 57.731C59.7514 57.693 59.6704 57.6374 59.6028 57.5674C59.5306 57.4948 59.4739 57.4082 59.4361 57.313C59.3983 57.2178 59.3802 57.116 59.3829 57.0136V32.9213C59.3778 32.821 59.3949 32.7209 59.4329 32.628C59.471 32.5351 59.5289 32.4517 59.6028 32.3837C59.7444 32.252 59.9306 32.1788 60.124 32.1788C60.3174 32.1788 60.5037 32.252 60.6453 32.3837C60.7164 32.4534 60.772 32.5373 60.8085 32.6299C60.845 32.7225 60.8615 32.8218 60.8571 32.9213V57.0136ZM63.1458 42.3529L73.0824 32.4163C73.1507 32.3445 73.2328 32.2872 73.3238 32.248C73.4147 32.2088 73.5127 32.1885 73.6118 32.1882C73.8045 32.201 73.9863 32.2818 74.1249 32.4163C74.2564 32.5561 74.3343 32.7378 74.3449 32.9294C74.3481 33.0282 74.3302 33.1266 74.2923 33.2179C74.2543 33.3093 74.1973 33.3914 74.1249 33.4588L64.1883 43.3955C64.0427 43.5402 63.8478 43.6245 63.6426 43.6317C63.5459 43.6334 63.4499 43.6155 63.3603 43.5791C63.2707 43.5427 63.1894 43.4885 63.1213 43.4199C63.0519 43.3524 62.9973 43.2712 62.9608 43.1815C62.9244 43.0917 62.9069 42.9954 62.9096 42.8986C62.9086 42.7962 62.9292 42.6947 62.9698 42.6008C63.0105 42.5068 63.0705 42.4223 63.1458 42.3529ZM74.1331 57.5918C74.0666 57.6631 73.9858 57.7196 73.8959 57.7575C73.8061 57.7954 73.7093 57.8139 73.6118 57.8118C73.4067 57.8046 73.2118 57.7202 73.0661 57.5756L63.1295 47.6389C63.0573 47.5696 63.0005 47.486 62.9626 47.3934C62.9248 47.3008 62.9067 47.2013 62.9096 47.1013C62.9153 46.911 62.994 46.7302 63.1295 46.5964C63.2645 46.4567 63.4485 46.375 63.6426 46.3683C63.7423 46.3644 63.8416 46.3828 63.9332 46.4223C64.0248 46.4618 64.1064 46.5212 64.172 46.5964L74.1087 56.533C74.1842 56.6005 74.2443 56.6835 74.285 56.7762C74.3258 56.8689 74.3462 56.9693 74.3449 57.0706C74.3491 57.1676 74.3323 57.2643 74.2958 57.3543C74.2592 57.4442 74.2038 57.5253 74.1331 57.5918Z" fill="white"/>
</svg>
